<svg width="27" height="24" viewBox="0 0 27 24" fill="none" xmlns="http://www.w3.org/2000/svg">
<path d="M13.5018 8.09462C11.1618 8.09462 9.25222 9.8495 9.25222 11.9999C9.25222 14.1503 11.1618 15.9052 13.5018 15.9052C15.8417 15.9052 17.7513 14.1503 17.7513 11.9999C17.7513 9.8495 15.8417 8.09462 13.5018 8.09462ZM26.2473 11.9999C26.2473 10.3827 26.2632 8.78017 26.1644 7.16591C26.0656 5.29091 25.6001 3.62685 24.1081 2.25575C22.613 0.88173 20.8054 0.456926 18.7651 0.366106C17.0054 0.275285 15.2615 0.289934 13.505 0.289934C11.7452 0.289934 10.0014 0.275285 8.24482 0.366106C6.20453 0.456926 4.39376 0.88466 2.90179 2.25575C1.40664 3.62978 0.944381 5.29091 0.845554 7.16591C0.746727 8.7831 0.762667 10.3856 0.762667 11.9999C0.762667 13.6142 0.746727 15.2196 0.845554 16.8339C0.944381 18.7089 1.40982 20.3729 2.90179 21.744C4.39695 23.1181 6.20453 23.5429 8.24482 23.6337C10.0046 23.7245 11.7484 23.7099 13.505 23.7099C15.2647 23.7099 17.0085 23.7245 18.7651 23.6337C20.8054 23.5429 22.6162 23.1151 24.1081 21.744C25.6033 20.37 26.0656 18.7089 26.1644 16.8339C26.2664 15.2196 26.2473 13.6171 26.2473 11.9999ZM13.5018 18.0087C9.88344 18.0087 6.96326 15.3251 6.96326 11.9999C6.96326 8.6747 9.88344 5.9911 13.5018 5.9911C17.1201 5.9911 20.0403 8.6747 20.0403 11.9999C20.0403 15.3251 17.1201 18.0087 13.5018 18.0087ZM20.3081 7.14833C19.4633 7.14833 18.7811 6.52138 18.7811 5.74501C18.7811 4.96864 19.4633 4.34169 20.3081 4.34169C21.1529 4.34169 21.8351 4.96864 21.8351 5.74501C21.8354 5.92936 21.7961 6.11195 21.7194 6.28231C21.6427 6.45268 21.5303 6.60747 21.3884 6.73782C21.2466 6.86818 21.0781 6.97154 20.8928 7.04198C20.7074 7.11242 20.5087 7.14856 20.3081 7.14833Z" fill="#F1F1F1"/>
</svg>
