<svg width="32" height="23" viewBox="0 0 32 23" fill="none" xmlns="http://www.w3.org/2000/svg">
<path d="M26.9589 14.5408C26.8126 13.6403 26.028 12.9383 25.018 12.7291C21.0922 11.9137 20.108 9.91027 19.942 7.68817C19.2458 7.57342 18.0072 7.44922 15.9049 7.44922C13.8026 7.44922 12.564 7.57342 11.8678 7.68817C11.7018 9.91027 10.7176 11.9137 6.79176 12.7291C5.78173 12.9397 4.99716 13.6403 4.85091 14.5408L4.09377 19.1875C3.82717 20.8237 5.18302 22.2992 7.06902 22.2992H24.7408C26.6252 22.2992 27.9826 20.8237 27.716 19.1875L26.9589 14.5408ZM15.9049 18.9134C13.7797 18.9134 12.0567 17.4014 12.0567 15.5384C12.0567 13.6754 13.7797 12.1634 15.9049 12.1634C18.0301 12.1634 19.7531 13.6754 19.7531 15.5384C19.7531 17.4014 18.0285 18.9134 15.9049 18.9134ZM31.063 6.09922C31.0264 4.07422 25.21 0.700569 15.9049 0.699219C6.59828 0.700569 0.781845 4.07422 0.746806 6.09922C0.711767 8.12422 0.778798 10.7594 4.60869 10.3207C9.08908 9.80632 8.81334 8.41987 8.81334 6.43807C8.81334 5.05567 12.4574 4.72222 15.9049 4.72222C19.3524 4.72222 22.9949 5.05567 22.9964 6.43807C22.9964 8.41987 22.7207 9.80632 27.2011 10.3207C31.0295 10.7594 31.098 8.12422 31.063 6.09922Z" fill="#F1F1F1"/>
</svg>
