<svg width="26" height="22" viewBox="0 0 26 22" fill="none" xmlns="http://www.w3.org/2000/svg">
<path fill-rule="evenodd" clip-rule="evenodd" d="M0.367188 1.838C0.367188 1.35053 0.586685 0.883032 0.977393 0.53834C1.3681 0.193648 1.89802 2.45031e-06 2.45056 2.45031e-06H23.2185C23.4924 -0.000392101 23.7636 0.0468654 24.0167 0.139069C24.2698 0.231273 24.4998 0.366612 24.6935 0.537339C24.8872 0.708065 25.0409 0.910826 25.1457 1.13401C25.2505 1.3572 25.3043 1.59643 25.3042 1.838V20.16C25.3045 20.4016 25.2508 20.6409 25.1461 20.8642C25.0415 21.0875 24.888 21.2904 24.6944 21.4613C24.5008 21.6322 24.2709 21.7678 24.0178 21.8602C23.7648 21.9526 23.4935 22.0001 23.2197 22H2.45056C2.17687 22 1.90587 21.9524 1.65303 21.86C1.40019 21.7676 1.17047 21.6321 0.976992 21.4613C0.783519 21.2905 0.630082 21.0878 0.52545 20.8647C0.420817 20.6416 0.367039 20.4025 0.367188 20.161V1.838ZM10.2377 8.388H13.6144V9.884C14.1018 9.024 15.3486 8.25 17.2223 8.25C20.8144 8.25 21.6656 9.963 21.6656 13.106V18.928H18.0305V13.822C18.0305 12.032 17.5431 11.022 16.3053 11.022C14.5881 11.022 13.874 12.111 13.874 13.822V18.928H10.2377V8.388ZM4.00345 18.791H7.63972V8.25H4.00345V18.79V18.791ZM8.16 4.812C8.16685 5.08668 8.11145 5.35979 7.99704 5.61532C7.88264 5.87084 7.71153 6.10364 7.49376 6.30003C7.27599 6.49643 7.01595 6.65248 6.7289 6.75901C6.44185 6.86554 6.13357 6.92042 5.82215 6.92042C5.51074 6.92042 5.20246 6.86554 4.9154 6.75901C4.62835 6.65248 4.36831 6.49643 4.15055 6.30003C3.93278 6.10364 3.76167 5.87084 3.64726 5.61532C3.53286 5.35979 3.47745 5.08668 3.48431 4.812C3.49777 4.27286 3.74999 3.75979 4.18695 3.38269C4.62392 3.00558 5.21088 2.79442 5.82215 2.79442C6.43342 2.79442 7.02039 3.00558 7.45736 3.38269C7.89432 3.75979 8.14654 4.27286 8.16 4.812Z" fill="#F1F1F1"/>
</svg>
